<svg width="50" height="50" viewBox="0 0 50 50" fill="none" xmlns="http://www.w3.org/2000/svg">
<path d="M38.4933 14.3651L38.9623 13.6664L39.7757 14.1547L40.1344 14.4096C41.0055 15.0727 42.8345 16.7701 43.2314 19.5802C43.9229 19.4597 44.6224 19.3977 45.3235 19.3945C46.983 19.3945 48.0971 19.7779 48.732 20.0924L49.0561 20.2693L49.2686 20.4079L49.8628 20.8868L49.6594 21.5014C49.335 22.349 48.835 23.1134 48.1947 23.7409C47.2956 24.6589 45.7137 25.7428 43.1966 25.8831L42.6429 25.8985H42.1847C41.0349 28.9006 39.4889 32.2785 36.8939 35.3118C35.3418 37.1254 33.5162 38.6683 31.4876 39.8813C29.0257 41.3207 26.348 42.3249 23.5654 42.8524C21.5637 43.2369 19.5314 43.4272 17.4952 43.4209C12.9882 43.4209 9.01208 42.5364 6.56478 40.9889C4.38081 39.6114 2.70214 37.3612 1.5738 34.3057C0.587194 31.5234 0.101038 28.5782 0.139234 25.6155C0.143528 24.8059 0.727217 24.1384 1.48347 24.032L1.69371 24.017H34.4487L34.7371 23.9974L35.1989 23.9468C35.9961 23.8435 37.2069 23.6086 38.0609 23.1172C37.0394 21.4505 36.7504 19.5007 37.2257 17.4247C37.4271 16.5554 37.7417 15.7195 38.1601 14.9393L38.4933 14.3651ZM9.12017 18.1963L9.24228 18.2172C9.35629 18.257 9.44609 18.3509 9.48353 18.469L9.50234 18.5942V22.6311L9.48287 22.7561C9.44484 22.874 9.35451 22.9674 9.24024 23.0065L9.11912 23.0268H4.72982C4.56046 23.0268 4.41679 22.9134 4.36612 22.7561L4.34659 22.6311V18.5931L4.36612 18.4669C4.40413 18.349 4.49443 18.2557 4.60867 18.2164L4.72982 18.1963H9.12017ZM15.1689 18.1963L15.291 18.2172C15.405 18.257 15.4948 18.3509 15.5322 18.469L15.5511 18.5942V22.6311L15.5316 22.7561C15.4935 22.874 15.4032 22.9674 15.289 23.0065L15.1678 23.0268H10.7785C10.6089 23.0268 10.4648 22.9136 10.4133 22.7563L10.3931 22.6311V18.5942C10.3931 18.4184 10.5035 18.2692 10.6566 18.2166L10.7785 18.1963H15.1689ZM21.3096 18.1963L21.4317 18.2172C21.5456 18.257 21.6356 18.3509 21.6729 18.469L21.6919 18.5942V22.6311L21.6722 22.7561C21.6343 22.874 21.5441 22.9674 21.4296 23.0065L21.3085 23.0268H16.9193C16.75 23.0268 16.6062 22.9134 16.5555 22.7561L16.5359 22.6311V18.5931L16.5555 18.4669C16.5935 18.349 16.6838 18.2557 16.798 18.2164L16.9192 18.1963H21.3096ZM27.3766 18.1963L27.4985 18.2166C27.6133 18.2561 27.7041 18.3498 27.7423 18.4684L27.762 18.5942V22.6311C27.7611 22.8063 27.6506 22.9543 27.498 23.0067L27.3766 23.0268H22.9872C22.8179 23.0268 22.6742 22.9134 22.6235 22.7561L22.6039 22.6311V18.5931L22.6235 18.4669C22.6615 18.349 22.7519 18.2557 22.8661 18.2164L22.9872 18.1963H27.3766ZM33.4981 18.1963L33.6199 18.2166C33.7347 18.2561 33.8256 18.3498 33.8638 18.4684L33.8835 18.5942V22.6311C33.8825 22.8063 33.772 22.9543 33.6194 23.0067L33.4981 23.0268H29.1087C28.9394 23.0268 28.7958 22.9134 28.745 22.7561L28.7256 22.6311V18.5931L28.745 18.4669C28.7829 18.349 28.8734 18.2557 28.9875 18.2164L29.1087 18.1963H33.4981ZM15.1678 12.3888L15.289 12.4089C15.4032 12.4482 15.4935 12.5414 15.5316 12.6594L15.5511 12.7845V16.8213C15.5511 16.9963 15.4415 17.1452 15.2891 17.1983L15.1678 17.2191H10.7785C10.6086 17.2182 10.4646 17.1045 10.4133 16.9467L10.3931 16.8213V12.7845C10.3941 12.6093 10.5045 12.4612 10.6571 12.4089L10.7785 12.3888H15.1678ZM21.3085 12.3888L21.4296 12.4089C21.5438 12.4482 21.6343 12.5414 21.6722 12.6594L21.6919 12.7845V16.8213C21.6919 16.9963 21.5822 17.1452 21.4299 17.1983L21.3085 17.2191H16.9193C16.7496 17.2182 16.6062 17.1041 16.5555 16.9465L16.536 16.8213V12.7845L16.5556 12.6594C16.5936 12.5415 16.6839 12.4482 16.7981 12.4089L16.9193 12.3888H21.3085ZM27.3766 12.3888C27.5462 12.3888 27.6904 12.5019 27.7417 12.6592L27.762 12.7845V16.8213C27.7611 16.9966 27.6508 17.1453 27.498 17.1984L27.3766 17.2191H22.9872C22.8177 17.2182 22.6742 17.1041 22.6235 16.9465L22.6039 16.8213V12.7845L22.6235 12.6594C22.6615 12.5415 22.7519 12.4482 22.8661 12.4089L22.9872 12.3888H27.3766ZM27.3766 6.57895C27.5462 6.57895 27.6904 6.69207 27.7417 6.84941L27.762 6.97465V11.0137C27.7611 11.1888 27.6506 11.337 27.498 11.3893L27.3766 11.4094H22.9872C22.8179 11.4094 22.6742 11.296 22.6235 11.1387L22.6039 11.0136V6.97465L22.6235 6.84955C22.6615 6.73161 22.7519 6.63837 22.8661 6.59911L22.9872 6.57895H27.3766Z" fill="#E5E7EB"/>
</svg>
