<svg width="50" height="50" viewBox="0 0 50 50" fill="none" xmlns="http://www.w3.org/2000/svg">
<g clip-path="url(#clip0_96_131)">
<path d="M3.27881 32.2485L16.2663 7.50037L29.043 0.652191L32.843 2.57004L20.143 9.74499L33.2644 49.1877L29.043 46.7323L19.2216 24.0949L6.32879 33.8788L3.27881 32.2485Z" fill="#27272A"/>
<path d="M41.2448 25.8396C43.8937 25.8396 46.0411 23.8385 46.0411 21.37C46.0411 18.9015 43.8937 16.9004 41.2448 16.9004C38.5958 16.9004 36.4484 18.9015 36.4484 21.37C36.4484 23.8385 38.5958 25.8396 41.2448 25.8396Z" fill="#27272A"/>
<path d="M44.7448 19.3754C44.3133 18.763 43.7309 18.2726 43.054 17.9519C42.3772 17.6311 41.6288 17.4908 40.8817 17.5447C40.1346 17.5987 39.4141 17.8449 38.7903 18.2596C38.1664 18.6742 37.6605 19.2431 37.3215 19.9111C36.9881 20.6299 36.8811 21.4331 37.0147 22.2142C37.1483 22.9953 37.5163 23.7172 38.0697 24.2843C39.5866 24.4053 41.0964 23.9756 42.3223 23.0741C43.5481 22.1725 44.4081 20.8595 44.7448 19.3754ZM31.8447 2.50046L29.0822 0.984402L17.0538 7.67901L18.0127 8.19687L19.8359 9.1558L23.1377 7.32187L31.8465 2.46832L31.8447 2.50046ZM32.9573 2.03975C33.0289 2.05722 33.0947 2.09286 33.1486 2.14322C33.2023 2.19358 33.2422 2.25696 33.2644 2.32725L37.293 14.2147C37.3342 14.309 37.3373 14.4155 37.3017 14.5121C37.2661 14.6087 37.1945 14.6877 37.1019 14.7326C35.5645 15.5763 34.3567 16.9142 33.6742 18.5297C32.9917 20.1453 32.8744 21.9438 33.3412 23.6343C33.8984 25.474 35.0822 27.0606 36.687 28.1187C38.2918 29.1769 40.2164 29.6398 42.1269 29.4271C42.2317 29.4204 42.3361 29.4463 42.4256 29.5013C42.5151 29.5563 42.5855 29.6377 42.6269 29.7343L46.7893 41.936C46.8163 42.0343 46.8122 42.1385 46.7777 42.2344C46.7432 42.3303 46.6799 42.4131 46.5964 42.4717L33.8019 49.9521C33.741 49.9783 33.6754 49.9917 33.609 49.9913C33.491 50.0134 33.369 49.9931 33.2644 49.9342L28.7751 47.1128C28.6933 47.0703 28.6266 47.0035 28.584 46.9217L19.8163 26.7611L6.46454 34.3574C6.38483 34.3981 6.29721 34.421 6.20779 34.4244C6.11835 34.4278 6.02925 34.4116 5.94669 34.3771L2.91099 32.6504C2.81172 32.5971 2.73662 32.5078 2.70109 32.4008C2.66556 32.2939 2.6723 32.1774 2.71992 32.0754L15.6913 7.46115C15.7398 7.37699 15.8135 7.31016 15.902 7.27008L28.8323 0.0576189C28.9031 0.0197891 28.9822 0 29.0626 0C29.143 0 29.2221 0.0197891 29.293 0.0576189L32.9573 2.03975ZM16.9198 8.65044L16.2859 8.32544L3.78598 32.1325L6.06812 33.4182L16.8502 19.3111C16.9031 19.2461 16.9706 19.1946 17.0473 19.1612C17.124 19.1276 17.2077 19.1129 17.2913 19.1182C17.3732 19.133 17.4506 19.1667 17.5173 19.2166C17.5839 19.2665 17.638 19.3312 17.6752 19.4057L29.4162 46.4556L32.5537 48.3931L19.9502 11.5487L19.4145 10.0129L16.902 8.63258L16.9198 8.65044ZM36.2573 22.8468C35.97 21.785 36.0507 20.6573 36.4862 19.6473C36.9217 18.6372 37.6863 17.8044 38.6555 17.2843C39.6385 16.7345 40.7713 16.5124 41.8892 16.6505C43.0071 16.7887 44.0518 17.2796 44.8715 18.0521C45.7996 18.9439 46.3356 20.1678 46.3616 21.4546C46.3878 22.7414 45.9019 23.9859 45.0108 24.9146L44.8715 25.0539C44.2286 25.6695 43.4394 26.111 42.5785 26.3367C41.7175 26.5625 40.8132 26.565 39.9511 26.3441C39.0889 26.1231 38.2972 25.6861 37.6509 25.0742C37.0046 24.4622 36.5249 23.6956 36.2573 22.8468Z" fill="#E5E7EB"/>
</g>
<defs>
<clipPath id="clip0_96_131">
<rect width="50" height="50" fill="white"/>
</clipPath>
</defs>
</svg>
