<svg width="50" height="50" viewBox="0 0 50 50" fill="none" xmlns="http://www.w3.org/2000/svg">
<path d="M48.4271 13.5214L50 9.4443L49.9354 9.19222L34.3667 13.2901C36.0271 10.8881 35.4562 8.96097 35.4562 8.96097C35.4562 8.96097 30.4833 12.136 26.7208 12.0547C22.9625 11.9714 21.7479 10.9714 15.9812 12.8089C10.2146 14.6464 8.58333 20.2881 6.91667 21.5026C5.24167 22.7172 0 26.6631 0 26.6631L0.0125 26.7339L4.74167 25.2256C4.74167 25.2256 3.44583 26.4443 0.689583 30.1631L0.560417 30.0443L0.564583 30.0672C0.564583 30.0672 2.78125 33.4547 4.95417 32.8256C5.20795 32.7456 5.45407 32.6431 5.68958 32.5193C6.5625 33.0068 7.70417 33.4839 8.96458 33.6131C8.96458 33.6131 8.11042 32.6235 7.39792 31.4943L7.89375 31.1735L9.69583 31.836L9.49583 30.1443C9.50208 30.1381 9.50833 30.1381 9.5125 30.1318L11.2812 30.7797L11.0625 29.2422C11.2826 29.1254 11.5063 29.0156 11.7333 28.9131L13.5771 21.9443L21.2062 16.7422L20.6 18.2693C19.0562 22.0735 16.1521 22.9693 16.1521 22.9693L14.9396 23.4276C14.0375 24.4943 13.6604 24.7547 13.3479 28.3297C14.0729 28.1464 14.7687 28.1068 15.3979 28.2714C18.6562 29.1485 19.7875 33.0776 18.9083 34.161C18.6917 34.4318 18.1667 34.8985 17.5062 35.4464H16.1875L16.1708 36.5172L16.0354 36.6235H14.6917L14.6729 37.6735L14.3187 37.9381C13.0542 37.961 11.4583 36.8589 11.4583 36.8589C11.4583 37.861 12.2937 39.411 12.2937 39.411L12.4396 39.3401L12.3125 39.4339C12.3125 39.4339 15.6979 41.6901 17.825 40.8526C19.7208 40.111 24.6229 36.2422 28.8583 34.4089L41.6708 31.0339L43.3604 26.6589L33.5937 29.2318V25.2964L45.0521 22.2797L46.7417 17.9047L33.5958 21.3672V17.4318L48.4271 13.5214ZM25.1708 21.8547L28.2104 21.0547L28.2521 21.2089L27.3042 23.6651L24.1521 24.4943L25.1708 21.8547ZM26.2187 27.1172L23.0687 27.9464L24.0875 25.3089L27.1271 24.5068L27.1687 24.661L26.2187 27.1172ZM30.325 26.2339L27.1729 27.0631L28.1937 24.4256L31.2333 23.6235L31.275 23.7756L30.325 26.2339Z" fill="#E5E7EB"/>
</svg>
