<svg width="50" height="50" viewBox="0 0 50 50" fill="none" xmlns="http://www.w3.org/2000/svg">
<path d="M33.0261 18.7104H23.4677V0H33.0261C38.1844 0 42.3802 4.19583 42.3802 9.35417C42.3802 14.5125 38.1844 18.7104 33.0261 18.7104ZM26.5323 15.6458H33.0261C36.4948 15.6458 39.3156 12.8229 39.3156 9.35625C39.3156 5.88958 36.4927 3.06667 33.0261 3.06667H26.5323V15.6458ZM26.5323 18.7104H16.9761C11.8177 18.7104 7.6219 14.5146 7.6219 9.35625C7.6219 4.19792 11.8177 0 16.9761 0H26.5344V18.7104H26.5323ZM16.9761 3.06458C13.5073 3.06458 10.6865 5.8875 10.6865 9.35417C10.6865 12.8208 13.5073 15.6458 16.9761 15.6458H23.4698V3.06458H16.9761ZM26.5323 34.3542H16.9761C11.8177 34.3542 7.6219 30.1583 7.6219 25C7.6219 19.8417 11.8177 15.6458 16.9761 15.6458H26.5344V34.3542H26.5323ZM16.9761 18.7104C13.5073 18.7104 10.6865 21.5333 10.6865 25C10.6865 28.4667 13.5094 31.2896 16.9761 31.2896H23.4698V18.7104H16.9761ZM17.0261 50C11.8406 50 7.61981 45.8042 7.61981 40.6458C7.61981 35.4875 11.8156 31.2917 16.974 31.2917H26.5323V40.5437C26.5323 45.7583 22.2677 50 17.0261 50ZM16.9761 34.3542C15.3086 34.3564 13.7101 35.0197 12.5311 36.1988C11.352 37.3778 10.6887 38.9763 10.6865 40.6438C10.6865 44.1125 13.5302 46.9333 17.0281 46.9333C20.5802 46.9333 23.4719 44.0667 23.4719 40.5417V34.3542H16.9761ZM33.0261 34.3542H32.8219C27.6636 34.3542 23.4677 30.1583 23.4677 25C23.4677 19.8417 27.6636 15.6458 32.8219 15.6458H33.0261C38.1844 15.6458 42.3802 19.8417 42.3802 25C42.3802 30.1583 38.1844 34.3542 33.0261 34.3542ZM32.824 18.7104C29.3552 18.7104 26.5344 21.5333 26.5344 25C26.5344 28.4667 29.3573 31.2896 32.824 31.2896H33.0281C36.4969 31.2896 39.3177 28.4667 39.3177 25C39.3177 21.5333 36.4927 18.7104 33.0261 18.7104H32.824Z" fill="#E5E7EB"/>
</svg>
