<svg width="50" height="50" viewBox="0 0 50 50" fill="none" xmlns="http://www.w3.org/2000/svg">
<g clip-path="url(#clip0_96_138)">
<path d="M48.0796 22.5906L27.4094 1.92032C26.7753 1.28625 25.8877 0.905823 25 0.905823C24.1123 0.905823 23.2246 1.28625 22.5905 1.92032L18.1521 6.35872L23.3514 11.558C23.8587 11.3044 24.3659 11.1775 25 11.1775C27.1557 11.1775 28.8043 12.8261 28.8043 14.9819C28.8043 15.6159 28.6775 16.1232 28.4239 16.6305L33.4964 21.7029C34.0036 21.4493 34.5108 21.3224 35.1449 21.3224C37.3007 21.3224 38.9492 22.971 38.9492 25.1268C38.9492 27.2827 37.3007 28.9311 35.1449 28.9311C32.9891 28.9311 31.3405 27.2827 31.3405 25.1268C31.3405 24.4928 31.4674 23.9855 31.7209 23.4783L26.6486 18.4058C26.5217 18.4058 26.3949 18.5327 26.2681 18.5327V31.721C27.7899 32.2283 28.8043 33.6232 28.8043 35.2718C28.8043 37.4275 27.1557 39.0761 25 39.0761C22.8442 39.0761 21.1956 37.4275 21.1956 35.2718C21.1956 33.6232 22.2101 32.2283 23.7318 31.721V18.4058C22.2101 17.8985 21.1956 16.5036 21.1956 14.855C21.1956 14.221 21.3225 13.7137 21.5761 13.2066L16.3768 8.00728L1.92025 22.5906C1.2862 23.2246 0.905762 24.1123 0.905762 25C0.905762 25.8877 1.2862 26.7754 1.92025 27.4094L22.5905 48.0797C23.2246 48.7139 24.1123 49.0942 25 49.0942C25.8877 49.0942 26.7753 48.7139 27.4094 48.0797L48.0796 27.4094C48.7138 26.7754 49.0942 25.8877 49.0942 25C49.0942 24.1123 48.7138 23.2246 48.0796 22.5906Z" fill="#E5E7EB"/>
</g>
<defs>
<clipPath id="clip0_96_138">
<rect width="50" height="50" fill="white"/>
</clipPath>
</defs>
</svg>
