<svg width="50" height="50" viewBox="0 0 50 50" fill="none" xmlns="http://www.w3.org/2000/svg">
<path d="M25.0021 0C23.8205 0 22.6873 0.469387 21.8518 1.3049C21.0163 2.14041 20.5469 3.27361 20.5469 4.45521C20.5469 5.6368 21.0163 6.77 21.8518 7.60552C22.6873 8.44103 23.8205 8.91042 25.0021 8.91042C26.1837 8.91042 27.3169 8.44103 28.1524 7.60552C28.9879 6.77 29.4573 5.6368 29.4573 4.45521C29.4573 3.27361 28.9879 2.14041 28.1524 1.3049C27.3169 0.469387 26.1837 0 25.0021 0ZM42.7937 10.2729C41.6121 10.2729 40.4789 10.7423 39.6434 11.5778C38.8079 12.4133 38.3385 13.5465 38.3385 14.7281C38.3385 15.9097 38.8079 17.0429 39.6434 17.8784C40.4789 18.7139 41.6121 19.1833 42.7937 19.1833C43.9753 19.1833 45.1085 18.7139 45.9441 17.8784C46.7796 17.0429 47.249 15.9097 47.249 14.7281C47.249 13.5465 46.7796 12.4133 45.9441 11.5778C45.1085 10.7423 43.9753 10.2729 42.7937 10.2729ZM42.7937 30.8187C41.6121 30.8187 40.4789 31.2881 39.6434 32.1236C38.8079 32.9592 38.3385 34.0924 38.3385 35.274C38.3385 36.4556 38.8079 37.5888 39.6434 38.4243C40.4789 39.2598 41.6121 39.7292 42.7937 39.7292C43.9753 39.7292 45.1085 39.2598 45.9441 38.4243C46.7796 37.5888 47.249 36.4556 47.249 35.274C47.249 34.0924 46.7796 32.9592 45.9441 32.1236C45.1085 31.2881 43.9753 30.8187 42.7937 30.8187ZM25.0021 41.0917C23.8208 41.0917 22.6878 41.5609 21.8525 42.3963C21.0172 43.2316 20.5479 44.3645 20.5479 45.5458C20.5479 46.7271 21.0172 47.8601 21.8525 48.6954C22.6878 49.5307 23.8208 50 25.0021 50C26.1834 50 27.3163 49.5307 28.1516 48.6954C28.987 47.8601 29.4562 46.7271 29.4562 45.5458C29.4562 44.3645 28.987 43.2316 28.1516 42.3963C27.3163 41.5609 26.1834 41.0917 25.0021 41.0917ZM7.20625 30.8208C6.62132 30.8208 6.04211 30.936 5.50171 31.1599C4.96131 31.3837 4.47028 31.7118 4.05667 32.1254C3.64307 32.539 3.31498 33.0301 3.09113 33.5705C2.86729 34.1109 2.75208 34.6901 2.75208 35.275C2.75208 35.8599 2.86729 36.4391 3.09113 36.9795C3.31498 37.5199 3.64307 38.011 4.05667 38.4246C4.47028 38.8382 4.96131 39.1663 5.50171 39.3901C6.04211 39.614 6.62132 39.7292 7.20625 39.7292C8.38784 39.7292 9.52104 39.2598 10.3566 38.4243C11.1921 37.5888 11.6615 36.4556 11.6615 35.274C11.6615 34.0924 11.1921 32.9592 10.3566 32.1236C9.52104 31.2881 8.38784 30.8208 7.20625 30.8208ZM7.20625 10.2729C6.02465 10.2729 4.89145 10.7423 4.05594 11.5778C3.22042 12.4133 2.75104 13.5465 2.75104 14.7281C2.75104 15.9097 3.22042 17.0429 4.05594 17.8784C4.89145 18.7139 6.02465 19.1833 7.20625 19.1833C8.38784 19.1833 9.52104 18.7139 10.3566 17.8784C11.1921 17.0429 11.6615 15.9097 11.6615 14.7281C11.6615 13.5465 11.1921 12.4133 10.3566 11.5778C9.52104 10.7423 8.38784 10.2729 7.20625 10.2729ZM25.0021 3.23542L6.15 14.1187V35.8854L25.0021 46.7687L43.85 35.8854V14.1187L25.0021 3.23542ZM25.0021 6.57083L40.9604 34.2167H9.03958L25.0021 6.57083ZM22.1125 7.34375L8.26875 31.3271V15.3396L22.1125 7.34375ZM27.8917 7.34375L41.7375 15.3396V31.3271L27.8917 7.34375ZM11.1542 36.3333H38.8479L25.0021 44.325L11.1542 36.3333Z" fill="#E5E7EB"/>
</svg>
