<svg width="50" height="50" viewBox="0 0 50 50" fill="none" xmlns="http://www.w3.org/2000/svg">
<path fill-rule="evenodd" clip-rule="evenodd" d="M29.1995 0.621033C28.8576 0.621033 28.5401 0.696885 28.247 0.79801C28.8697 1.22782 29.2117 1.79669 29.3827 2.44139C29.3949 2.52988 29.4193 2.59309 29.4315 2.68157C29.4437 2.75743 29.4559 2.83328 29.4559 2.90913C29.5048 4.02156 29.1751 4.16062 28.943 4.81797C28.5889 5.66495 28.6866 6.57513 29.114 7.30833C29.1506 7.39681 29.1995 7.49795 29.2605 7.58644C28.7965 4.38816 31.3731 3.9078 31.8494 2.90913C31.886 2.03687 31.19 1.45537 30.6404 1.05084C30.1154 0.722161 29.6391 0.621033 29.1995 0.621033ZM33.0828 1.34159C33.0339 1.63234 33.0705 1.55649 33.0584 1.7082C33.0462 1.80932 33.0462 1.93574 33.0339 2.03687C33.0096 2.138 32.9851 2.23913 32.9485 2.34027C32.924 2.44139 32.8874 2.54253 32.8508 2.64365C32.8019 2.74479 32.7653 2.83328 32.7164 2.9344C32.6798 2.98499 32.6554 3.03554 32.6187 3.08611C32.5944 3.12403 32.5699 3.16196 32.5454 3.19988C32.4845 3.28837 32.4234 3.37686 32.3623 3.45271C32.289 3.52855 32.2279 3.61704 32.1425 3.68025V3.69291C32.0692 3.75612 31.996 3.83196 31.9104 3.89517C31.654 4.09743 31.361 4.24913 31.0923 4.43875C31.0068 4.50196 30.9213 4.55252 30.848 4.62837C30.7626 4.69157 30.6893 4.75478 30.6161 4.83063C30.5305 4.90647 30.4696 4.98233 30.3962 5.07082C30.3352 5.14667 30.262 5.23515 30.213 5.32364C30.1521 5.41213 30.091 5.50063 30.0421 5.58912C29.9932 5.69024 29.9566 5.77873 29.9078 5.87987C29.8712 5.98099 29.8346 6.06948 29.8101 6.17062C29.7735 6.28438 29.749 6.38552 29.7246 6.48665C29.7124 6.53724 29.7124 6.60042 29.7002 6.65099C29.6879 6.70157 29.6879 6.75212 29.6758 6.80269C29.6758 6.90381 29.6636 7.01759 29.6636 7.11871C29.6636 7.19457 29.6636 7.27042 29.6758 7.34627C29.6758 7.44739 29.688 7.54853 29.7124 7.6623C29.7246 7.76343 29.7491 7.86456 29.7735 7.9657C29.8101 8.06682 29.8346 8.16796 29.8712 8.26908C29.8956 8.3323 29.9322 8.3955 29.9567 8.44606L27.148 7.32098C26.6718 7.18193 26.2077 7.05552 25.7314 6.94174C25.475 6.87854 25.2186 6.81533 24.9621 6.75212C24.2295 6.60042 23.4846 6.48665 22.7396 6.4108C22.7153 6.4108 22.703 6.39814 22.6786 6.39814C21.9459 6.3223 21.2254 6.28438 20.4927 6.28438C19.9554 6.28438 19.418 6.30963 18.8929 6.34758C18.148 6.39817 17.4031 6.49928 16.6583 6.62569C16.4751 6.65096 16.2919 6.6889 16.1087 6.72682C15.7302 6.80267 15.3638 6.89116 15.0097 6.97965C14.8265 7.03024 14.6434 7.08079 14.4602 7.13135C14.277 7.2072 14.1061 7.29569 13.9351 7.37154C13.8007 7.43474 13.6664 7.49795 13.5321 7.56115C13.5077 7.57381 13.4832 7.57381 13.4711 7.58642C13.3489 7.64963 13.239 7.70019 13.1291 7.7634C13.0925 7.77605 13.068 7.78866 13.0437 7.80132C12.9093 7.86453 12.775 7.94038 12.6651 8.00358C12.5796 8.04151 12.4941 8.09207 12.4208 8.13C12.3842 8.15526 12.3354 8.18058 12.311 8.19321C12.2011 8.25641 12.0912 8.31962 11.9935 8.38283C11.8836 8.44604 11.7858 8.50923 11.7004 8.57244C11.6149 8.63565 11.5294 8.68621 11.4562 8.74941C11.4439 8.76209 11.4317 8.76209 11.4195 8.77468C11.3462 8.8253 11.2607 8.88843 11.1875 8.95164C11.1875 8.95164 11.1753 8.96432 11.163 8.97691C11.1021 9.02754 11.041 9.07807 10.9799 9.12861C10.9555 9.14129 10.9311 9.16655 10.9066 9.17923C10.8455 9.22977 10.7846 9.29298 10.7235 9.34352C10.7112 9.36879 10.6868 9.38146 10.6746 9.39414C10.6013 9.46995 10.528 9.53316 10.4548 9.60905C10.4426 9.60905 10.4426 9.62173 10.4304 9.63432C10.3571 9.69754 10.2838 9.77334 10.2105 9.84923C10.1983 9.86182 10.1983 9.8745 10.1862 9.8745C10.1251 9.93771 10.064 10.0009 10.003 10.0767C9.97859 10.102 9.94194 10.1274 9.91751 10.1525C9.85645 10.2284 9.78319 10.3042 9.70992 10.3801C9.69769 10.4054 9.67328 10.4181 9.66105 10.4433C9.56336 10.5445 9.47787 10.6456 9.38019 10.7467C9.36795 10.7594 9.35578 10.772 9.34355 10.7847C9.14816 10.9996 8.94056 11.2144 8.72076 11.4041C8.50095 11.6064 8.26893 11.7959 8.03691 11.9603C7.79268 12.1373 7.56066 12.289 7.30421 12.4407C7.05998 12.5797 6.80354 12.7061 6.53488 12.8199C6.27844 12.9337 6.00979 13.0349 5.74113 13.1233C5.22825 13.2371 4.70315 13.452 4.25132 13.4899C4.15362 13.4899 4.04372 13.5151 3.94603 13.5278C3.83612 13.5531 3.73844 13.5784 3.64074 13.6037C3.54305 13.6416 3.44536 13.6795 3.34766 13.7174C3.24997 13.7554 3.15228 13.8059 3.05459 13.8565C2.96911 13.9197 2.87142 13.9703 2.78593 14.0335C2.70045 14.0966 2.61497 14.1725 2.5417 14.2483C2.45622 14.3116 2.37074 14.4001 2.29746 14.4759C2.2242 14.5644 2.15093 14.6403 2.08987 14.7288C2.02881 14.8299 1.95554 14.9183 1.9067 15.0195C1.84564 15.108 1.78458 15.2091 1.73573 15.3102C1.68687 15.4241 1.63804 15.5251 1.60141 15.639C1.56477 15.74 1.52814 15.8539 1.4915 15.9676C1.4671 16.0688 1.44264 16.1699 1.43045 16.271C1.43045 16.2837 1.41822 16.2963 1.41822 16.309C1.39381 16.4227 1.39381 16.5744 1.38158 16.6502C1.36935 16.7388 1.35718 16.8146 1.35718 16.9031C1.35718 16.9537 1.35718 17.0168 1.36941 17.0674C1.38164 17.1559 1.39381 17.2317 1.41827 17.3076C1.44268 17.3834 1.46714 17.4593 1.50375 17.5351V17.5478C1.54039 17.6237 1.58924 17.6995 1.63808 17.7754C1.68694 17.8512 1.73578 17.9271 1.79683 18.0029C1.85789 18.0661 1.93116 18.1419 2.00443 18.2051C2.0777 18.281 2.15097 18.3442 2.23645 18.4074C2.52953 18.6729 2.60279 18.7614 2.98136 18.9636C3.04241 19.0016 3.10347 19.0268 3.17674 19.0648C3.18897 19.0648 3.20115 19.0774 3.21337 19.0774C3.21337 19.1027 3.21337 19.1154 3.22561 19.1407C3.23784 19.2418 3.26224 19.3429 3.28667 19.4441C3.31107 19.5578 3.34773 19.659 3.38437 19.7474C3.421 19.8232 3.44542 19.8991 3.48205 19.9749C3.49428 20.0002 3.50646 20.0256 3.51869 20.0382C3.56755 20.1393 3.61638 20.2278 3.66522 20.3163C3.72628 20.4048 3.78734 20.4933 3.8484 20.5817C3.90945 20.6576 3.98272 20.7461 4.056 20.8219C4.12927 20.8978 4.20253 20.961 4.28802 21.0368C4.28802 21.0368 4.30025 21.0495 4.31242 21.0495C4.3857 21.1127 4.45896 21.1759 4.53223 21.2265C4.61771 21.2897 4.7032 21.3403 4.80088 21.3908C4.88637 21.4415 4.98406 21.492 5.08175 21.5299C5.15503 21.5678 5.2405 21.5931 5.32598 21.6184C5.33821 21.6311 5.35038 21.6311 5.37485 21.6437C5.42371 21.6564 5.48475 21.6689 5.5336 21.6816C5.49696 22.3642 5.48473 23.0089 5.58246 23.2365C5.69237 23.4893 6.22968 22.7182 6.76698 21.8333C6.69371 22.7056 6.64487 23.7295 6.76698 24.0329C6.90131 24.3489 7.63401 23.3629 8.26901 22.2758C16.9271 20.2025 24.8279 26.3968 25.6583 35.1447C25.4996 33.7794 23.8754 33.0209 23.1305 33.2105C22.7641 34.146 22.1413 35.3469 21.14 36.0927C21.2255 35.2584 21.1888 34.3988 21.0179 33.5645C20.7493 34.7274 20.2241 35.8147 19.5037 36.7501C18.3436 36.8386 17.1835 36.2571 16.5729 35.3849C16.524 35.3469 16.5118 35.271 16.4752 35.2205C16.4386 35.132 16.4019 35.0435 16.3775 34.955C16.3409 34.8666 16.3164 34.7781 16.3042 34.6896C16.292 34.6011 16.292 34.5125 16.292 34.4115C16.292 34.3482 16.292 34.285 16.292 34.2218C16.3042 34.1333 16.3287 34.0449 16.353 33.9564C16.3774 33.8679 16.4019 33.7794 16.4386 33.6909C16.4874 33.6024 16.524 33.5139 16.5851 33.4254C16.7927 32.8186 16.7927 32.3257 16.4141 32.0349C16.3408 31.9843 16.2676 31.9464 16.1821 31.9084C16.1332 31.8958 16.0721 31.8705 16.0233 31.8579C15.9867 31.8452 15.9623 31.8326 15.9256 31.8199C15.8402 31.7947 15.7546 31.7693 15.6692 31.7567C15.5837 31.7315 15.4982 31.7188 15.4128 31.7188C15.3273 31.7061 15.2296 31.6935 15.1441 31.6935C15.083 31.6935 15.022 31.7062 14.9609 31.7062C14.8632 31.7062 14.7778 31.7189 14.6922 31.7441C14.6068 31.7568 14.5213 31.7694 14.4358 31.7947C14.3504 31.8199 14.2649 31.8453 14.1794 31.8832C14.0939 31.9211 14.0206 31.9591 13.9352 31.997C13.8619 32.0349 13.7887 32.0855 13.7031 32.1234C10.8579 34.0449 12.5553 38.5452 14.4969 39.8473C13.7642 39.9863 13.0193 40.1507 12.8117 40.315C12.7995 40.3276 12.7873 40.3403 12.7873 40.3403C13.3124 40.669 13.8619 40.9471 14.4358 41.1873C15.2174 41.4527 16.0478 41.6929 16.4141 41.7941V41.8066C17.4277 42.0216 18.4535 42.0974 19.4914 42.0342C24.9012 41.6424 29.334 37.3822 30.1399 31.7694C30.1644 31.8832 30.1888 31.9843 30.2132 32.0981C30.2498 32.3257 30.2987 32.5658 30.3231 32.806V32.8187C30.3475 32.9324 30.3597 33.0462 30.372 33.1474V33.198C30.3842 33.3117 30.3963 33.4255 30.3963 33.5266C30.4086 33.6657 30.4208 33.8048 30.4208 33.9438V34.146C30.4208 34.2092 30.433 34.2851 30.433 34.3483C30.433 34.4241 30.4208 34.5 30.4208 34.5758V34.7528C30.4208 34.8414 30.4086 34.9172 30.4086 35.0057C30.4086 35.0563 30.4086 35.1068 30.3963 35.17C30.3963 35.2585 30.3841 35.347 30.3841 35.4482C30.3719 35.486 30.3719 35.524 30.3719 35.5619C30.3596 35.6631 30.3474 35.7516 30.3352 35.8526C30.3352 35.8906 30.3352 35.9285 30.3229 35.9665C30.3107 36.0928 30.2863 36.2066 30.2741 36.333V36.3457V36.3583C30.2497 36.4721 30.2253 36.5985 30.2008 36.7123V36.7502C30.1764 36.864 30.152 36.9778 30.1276 37.0916C30.1276 37.1042 30.1154 37.1295 30.1154 37.1421C30.091 37.2559 30.0665 37.3697 30.0299 37.4834V37.5214C29.9932 37.6478 29.9566 37.7616 29.9321 37.8753C29.9199 37.888 29.9199 37.9006 29.9199 37.9006C29.8833 38.027 29.8467 38.1534 29.8101 38.2799C29.7612 38.4063 29.7246 38.52 29.6757 38.6465C29.6269 38.7729 29.5903 38.8992 29.5414 39.0131C29.4925 39.1395 29.4437 39.2532 29.3948 39.3797H29.3826C29.3337 39.4934 29.2849 39.6199 29.2238 39.7336C29.2116 39.7716 29.1995 39.7968 29.1872 39.8221C29.175 39.8348 29.175 39.8474 29.1629 39.86C28.3691 41.516 27.1968 42.9698 25.7313 44.1075C25.6337 44.1707 25.536 44.2466 25.4383 44.3224C25.4138 44.3477 25.3772 44.3603 25.3528 44.3857C25.2673 44.4488 25.1819 44.512 25.0842 44.5752L25.1208 44.6511H25.133C25.3039 44.6258 25.4749 44.6005 25.6459 44.5752H25.6581C25.9756 44.5247 26.2931 44.4615 26.6106 44.3982C26.6961 44.3856 26.7938 44.3603 26.8793 44.335C26.9404 44.3224 26.9892 44.3098 27.0503 44.2972C27.1357 44.2845 27.2212 44.2592 27.3067 44.2466C27.38 44.2213 27.4532 44.2086 27.5265 44.1833C28.7477 43.8799 29.9321 43.4628 31.0679 42.9698C29.1262 45.713 26.5252 47.9252 23.4845 49.379C24.8888 49.2778 26.2931 49.0376 27.6486 48.6331C32.5699 47.1288 36.7096 43.703 39.1886 39.0889C38.6879 42.0091 37.5644 44.7901 35.9037 47.2173C37.0881 46.4082 38.175 45.4727 39.1641 44.4108C41.8996 41.4528 43.6946 37.6983 44.3052 33.6657C44.7204 35.6631 44.8425 37.7236 44.6594 39.7589C53.4761 27.029 45.3921 13.8314 42.0095 10.355C41.9971 10.3298 41.985 10.3171 41.985 10.2918C41.9728 10.3045 41.9728 10.3045 41.9728 10.3171C41.9728 10.3044 41.9728 10.3044 41.9605 10.2918C41.9605 10.4435 41.9483 10.5952 41.9362 10.7469C41.8995 11.0376 41.8629 11.3158 41.814 11.5939C41.7529 11.872 41.6797 12.15 41.6064 12.4282C41.521 12.6937 41.4233 12.9717 41.3134 13.2373C41.2035 13.49 41.0813 13.7556 40.947 14.0083C40.8127 14.2485 40.6662 14.5014 40.5074 14.729C40.3487 14.9691 40.1777 15.1966 40.0067 15.4116C39.8236 15.6391 39.6281 15.8414 39.4328 16.0436C39.3106 16.1574 39.2007 16.2585 39.0787 16.3597C38.981 16.4482 38.8954 16.524 38.7978 16.6124C38.5779 16.7895 38.3581 16.9538 38.1139 17.1055C37.8819 17.2572 37.6377 17.4089 37.3935 17.5353C37.137 17.6617 36.8805 17.7755 36.6241 17.8892C36.3677 17.9904 36.099 18.0789 35.8304 18.1548C35.5617 18.2306 35.2808 18.2938 35.0121 18.3443C34.7313 18.3949 34.4504 18.4202 34.1818 18.4455C33.9864 18.4582 33.7911 18.4708 33.5956 18.4708C33.3147 18.4708 33.0339 18.4455 32.7653 18.4202C32.4844 18.3949 32.2035 18.357 31.9349 18.2938C31.654 18.2432 31.3854 18.1674 31.1167 18.0789H31.1045C31.3731 18.0536 31.6418 18.0283 31.9104 17.9777C32.1912 17.9271 32.4599 17.864 32.7286 17.7881C32.9972 17.7123 33.2659 17.6238 33.5223 17.5226C33.791 17.4215 34.0474 17.2951 34.2917 17.1687C34.5481 17.0423 34.7802 16.9032 35.0244 16.7515C35.2564 16.5872 35.4884 16.4228 35.7082 16.2458C35.928 16.0689 36.1356 15.8792 36.331 15.677C36.5386 15.4874 36.7218 15.2724 36.905 15.0575C37.0881 14.83 37.2591 14.6024 37.4179 14.3749C37.4422 14.337 37.4667 14.2865 37.4912 14.2485C37.6132 14.0463 37.7354 13.844 37.8453 13.6417C37.9796 13.3889 38.1017 13.1361 38.2116 12.8706C38.3215 12.6051 38.4192 12.3397 38.5046 12.0616C38.5902 11.7961 38.6512 11.518 38.7122 11.2399C38.7612 10.9491 38.81 10.671 38.8344 10.3929C38.8587 10.1022 38.8832 9.81138 38.8832 9.53325C38.8832 9.33102 38.871 9.12879 38.8588 8.92646C38.8345 8.63574 38.7978 8.35763 38.7612 8.07952C38.7123 7.78877 38.6512 7.51066 38.5779 7.23255C38.4925 6.96708 38.4071 6.68896 38.3094 6.4235C38.2116 6.15803 38.0896 5.89255 37.9674 5.63973C37.833 5.3869 37.6987 5.13407 37.5522 4.89389C37.3935 4.65371 37.2347 4.42616 37.0637 4.19862C36.8805 3.98371 36.6974 3.7688 36.5021 3.5539C36.4043 3.45278 36.2944 3.339 36.1846 3.23788C35.635 2.79542 35.0611 2.37825 34.4871 1.99902C34.4016 1.94843 34.3284 1.91053 34.2429 1.8726C33.8399 1.60713 33.4613 1.468 33.0828 1.34159Z" fill="#E5E7EB"/>
</svg>
