<svg width="50" height="50" viewBox="0 0 50 50" fill="none" xmlns="http://www.w3.org/2000/svg">
<g clip-path="url(#clip0_96_136)">
<path d="M23.3627 0.0133637C23.2552 0.0231374 22.913 0.0573457 22.6051 0.0817802C15.5034 0.721962 8.8514 4.55327 4.63832 10.442C2.29228 13.7162 0.79179 17.4302 0.224829 21.3641C0.0244379 22.7373 0 23.1429 0 25.0048C0 26.8667 0.0244379 27.2723 0.224829 28.6455C1.58358 38.0332 8.2649 45.9206 17.3265 48.8429C18.9491 49.3659 20.6598 49.7226 22.6051 49.9376C23.3627 50.0209 26.6373 50.0209 27.3949 49.9376C30.7527 49.5662 33.5972 48.7354 36.4028 47.3036C36.8329 47.0837 36.916 47.025 36.8573 46.9762C36.8182 46.9469 34.9854 44.4887 32.7859 41.5175L28.7879 36.1176L23.7781 28.7042C21.0215 24.6285 18.7537 21.2956 18.7341 21.2956C18.7146 21.2908 18.695 24.5846 18.6853 28.6064C18.6706 35.6484 18.6657 35.9319 18.5777 36.098C18.4506 36.3374 18.3529 36.4352 18.1476 36.5427C17.9912 36.6209 17.8544 36.6355 17.1163 36.6355H16.2707L16.046 36.4938C15.8993 36.401 15.7918 36.2788 15.7185 36.1371L15.6159 35.9171L15.6256 26.119L15.6403 16.316L15.7918 16.1254C15.87 16.0228 16.0362 15.8908 16.1535 15.8272C16.3538 15.7295 16.4321 15.7197 17.2776 15.7197C18.2747 15.7197 18.4409 15.7588 18.6999 16.0423C18.7732 16.1204 21.4859 20.2059 24.7312 25.127C27.9765 30.048 32.4145 36.7675 34.5944 40.0661L38.5532 46.0623L38.7537 45.9304C40.5279 44.7771 42.4047 43.1351 43.8905 41.4246C47.0528 37.7937 49.0909 33.3662 49.7752 28.6455C49.9755 27.2723 50 26.8667 50 25.0048C50 23.1429 49.9755 22.7373 49.7752 21.3641C48.4164 11.9764 41.7351 4.08902 32.6735 1.16667C31.0753 0.648657 29.3744 0.291915 27.4682 0.0768927C26.999 0.028024 23.7684 -0.0257313 23.3627 0.0133637ZM33.5972 15.1333C33.8319 15.2506 34.0225 15.4754 34.0909 15.71C34.13 15.8371 34.1398 18.5542 34.13 24.6773L34.1154 33.4639L32.566 31.0889L31.0118 28.7139V22.3268C31.0118 18.1974 31.0313 15.8762 31.0606 15.7637C31.1388 15.4901 31.3098 15.2751 31.5445 15.148C31.7448 15.0454 31.8182 15.0356 32.5855 15.0356C33.3089 15.0356 33.436 15.0454 33.5972 15.1333Z" fill="#E5E7EB"/>
</g>
<defs>
<clipPath id="clip0_96_136">
<rect width="50" height="50" fill="white"/>
</clipPath>
</defs>
</svg>
