<svg width="50" height="50" viewBox="0 0 50 50" fill="none" xmlns="http://www.w3.org/2000/svg">
<path d="M47.1708 14.4196V35.5657C47.1708 36.938 46.4324 38.2158 45.246 38.9065L26.9242 49.4854C26.3382 49.8254 25.6736 50 24.9948 50C24.3257 50 23.6593 49.8254 23.0732 49.4854L16.9557 45.8661C16.0432 45.3565 16.4884 45.1754 16.7901 45.0707C18.0087 44.6479 18.2551 44.5504 19.556 43.8121C19.6917 43.7346 19.8707 43.7649 20.0107 43.8457L24.7105 46.6362C24.8808 46.7322 25.1214 46.7322 25.2781 46.6362L43.6013 36.0603C43.7719 35.9628 43.8813 35.7684 43.8813 35.5658V14.4196C43.8813 14.2125 43.7719 14.019 43.597 13.9145L25.2813 3.34792C25.1124 3.2491 24.887 3.2491 24.7169 3.34792L6.40535 13.9174C6.22746 14.0192 6.11523 14.2187 6.11523 14.4196V35.5657C6.11523 35.7682 6.22737 35.958 6.40428 36.054L11.4237 38.9555C14.1467 40.316 15.8147 38.7124 15.8147 37.1008V16.2239C15.8147 15.9287 16.0517 15.696 16.3468 15.696H18.6704C18.9609 15.696 19.2016 15.9287 19.2016 16.2239V37.1009C19.2016 40.7355 17.2216 42.8204 13.7758 42.8204C12.7175 42.8204 11.8828 42.8204 9.55487 41.6744L4.75075 38.9065C3.56357 38.2221 2.82922 36.9381 2.82922 35.5657V14.4196C2.82922 13.0455 3.56357 11.7631 4.75075 11.0796L23.0732 0.491756C24.2328 -0.163919 25.7747 -0.163919 26.9242 0.491756L45.246 11.0796C46.4324 11.7659 47.1708 13.0455 47.1708 14.4196ZM31.3769 33.5487C25.9091 33.5487 24.7061 32.174 24.3032 29.4551C24.2565 29.1648 24.0078 28.9487 23.7098 28.9487H21.0381C20.7071 28.9487 20.4415 29.2132 20.4415 29.546C20.4415 33.0254 22.3353 37.1753 31.3769 37.1753C37.9235 37.1753 41.6772 34.598 41.6772 30.0967C41.6772 25.6326 38.6608 24.445 32.3123 23.6045C25.8956 22.7554 25.2435 22.3181 25.2435 20.8151C25.2435 19.5763 25.7957 17.9206 30.5484 17.9206C34.7924 17.9206 36.3572 18.8354 37.0005 21.6952C37.0572 21.9647 37.3022 22.1614 37.58 22.1614H40.2619C40.4282 22.1614 40.5863 22.09 40.6993 21.9713C40.8126 21.8461 40.8728 21.6829 40.8569 21.512C40.442 16.5827 37.1668 14.2865 30.5483 14.2865C24.657 14.2865 21.1434 16.7732 21.1434 20.9403C21.1434 25.4625 24.6394 26.7133 30.2922 27.2713C37.0571 27.9348 37.5822 28.9232 37.5822 30.2544C37.5822 32.5635 35.7295 33.5487 31.3769 33.5487Z" fill="#E5E7EB"/>
</svg>
