<svg width="50" height="50" viewBox="0 0 50 50" fill="none" xmlns="http://www.w3.org/2000/svg">
<path fill-rule="evenodd" clip-rule="evenodd" d="M41.4436 39.6592L19.1783 46.2971C19.0232 46.3442 18.8586 46.3502 18.7005 46.3146C18.5422 46.2789 18.3961 46.2029 18.2761 46.0939C18.1562 45.9849 18.0664 45.8466 18.0159 45.6927C17.9653 45.5387 17.9556 45.3741 17.9875 45.2153L25.9431 6.81037C25.9767 6.65349 26.0587 6.5111 26.1774 6.4032C26.2962 6.29529 26.4457 6.2273 26.6051 6.20879C26.7645 6.19027 26.9256 6.22215 27.066 6.29996C27.2063 6.37775 27.3187 6.49756 27.3874 6.64254L42.1148 38.1738C42.1809 38.3139 42.2157 38.4668 42.217 38.6218C42.2181 38.7768 42.1857 38.9302 42.1219 39.0713C42.0581 39.2126 41.9644 39.3383 41.8472 39.4397C41.7302 39.5413 41.5924 39.6161 41.4436 39.6592ZM45.2624 38.0916L28.214 1.58284C28.0045 1.13254 27.6762 0.747837 27.2645 0.470082C26.8527 0.192328 26.3731 0.0320145 25.8771 0.00636746C25.381 -0.0277505 24.8851 0.0757118 24.4441 0.305357C24.0031 0.535003 23.634 0.881921 23.3775 1.30789L4.89013 31.5144C4.60812 31.9716 4.46145 32.4994 4.46714 33.0366C4.47283 33.5737 4.63063 34.0983 4.92227 34.5495L13.9633 48.6699C14.304 49.1976 14.8064 49.6007 15.3955 49.8189C15.9845 50.0371 16.6282 50.0588 17.2306 49.8804L43.4753 42.0552C43.8717 41.9396 44.2383 41.7396 44.55 41.4689C44.8616 41.1981 45.1109 40.863 45.2806 40.4866C45.4503 40.1103 45.5364 39.7016 45.533 39.2887C45.5295 38.8759 45.4366 38.4687 45.2606 38.0952L45.2624 38.0916Z" fill="#E5E7EB"/>
</svg>
