<svg width="50" height="50" viewBox="0 0 50 50" fill="none" xmlns="http://www.w3.org/2000/svg">
<path d="M38.4846 14.1352L37.0504 13.6857C37.0504 13.3646 37.2003 13.022 37.2859 12.701C38.3562 7.43526 37.6498 3.197 35.1453 1.80565C32.6409 0.414298 29.0448 1.80565 25.1919 5.2091C24.828 5.53019 24.4427 5.87267 24.1002 6.21515L23.4581 5.57299C19.4338 1.91268 15.4096 0.392892 12.9908 1.80565C10.572 3.2184 9.97264 7.13559 10.8503 12.123C10.9359 12.6225 11.0429 13.1148 11.1714 13.6C10.6148 13.7498 10.0582 13.9211 9.52315 14.1137C4.81394 15.7406 1.4319 18.3948 1.4319 21.0063C1.4319 23.6177 5.028 26.5289 9.99408 28.1985L11.1927 28.5838C11.0643 29.1189 10.9573 29.6326 10.8503 30.1678C9.92984 35.0696 10.6362 38.9654 12.9908 40.2925C15.3454 41.6197 19.4124 40.2925 23.2868 36.8463L24.2072 35.9901C24.5926 36.3753 24.9992 36.7178 25.4059 37.0817C29.1947 40.3353 32.9406 41.6411 35.2524 40.3139C37.5642 38.9868 38.399 34.7485 37.393 29.6113C37.393 29.2046 37.2217 28.8192 37.1361 28.4125L37.9709 28.1557C43.0653 26.4647 46.7471 23.7462 46.7471 20.942C46.7471 18.138 43.3009 15.7191 38.4846 14.1352ZM26.5404 6.57905C29.8154 3.71073 32.962 2.57624 34.2892 3.38965C35.6163 4.20305 36.4297 7.67072 35.4237 12.2514C35.4237 12.5512 35.2952 12.8508 35.2096 13.1505C33.2504 12.6979 31.262 12.3832 29.2589 12.2086C28.1181 10.557 26.859 8.99032 25.4915 7.52088C25.834 7.1784 26.1765 6.87872 26.5404 6.57905ZM16.3087 25.587C16.7581 26.3576 17.2291 27.1282 17.7 27.8774C16.33 27.7275 14.9601 27.4921 13.6115 27.2138C13.9969 25.9295 14.4892 24.6238 15.0457 23.2752C15.4524 24.0458 15.8592 24.8164 16.3087 25.587ZM13.633 14.8843C14.8959 14.6061 16.2659 14.3706 17.6572 14.1994C17.1863 14.9271 16.7367 15.6407 16.3087 16.3399C15.8592 17.0891 15.4524 17.8597 15.0457 18.6302C14.5067 17.3719 14.0351 16.0858 13.633 14.7773V14.8843ZM16.0518 21.0491C16.6298 19.829 17.2719 18.6302 17.9354 17.453C18.599 16.2757 19.3482 15.1412 20.0759 14.0281C21.4031 14.0281 22.7516 13.8783 24.143 13.8783C25.5343 13.8783 26.8829 13.8783 28.1887 14.0281C28.9378 15.1412 29.6656 16.1686 30.3292 17.4316C30.9927 18.6945 31.6563 19.8075 32.2556 21.0063C31.6563 22.2263 31.0355 23.4251 30.3506 24.6024C29.6656 25.7797 28.895 26.9784 28.2315 28.0486C26.9043 28.1557 25.5343 28.1985 24.1644 28.1985C22.7945 28.1985 21.4245 28.1985 20.1188 28.0701C19.3482 26.9569 18.6418 25.8011 17.9782 24.6238C17.3147 23.4465 16.6511 22.2692 16.0518 21.0491ZM32.0202 25.5656C32.4697 24.795 32.8764 24.003 33.3045 23.211C33.861 24.4953 34.3534 25.7797 34.8029 27.1282C33.433 27.4279 32.0416 27.6634 30.6503 27.8346C31.1212 27.0854 31.5707 26.3362 32.0202 25.5656ZM33.2831 18.8015C32.8692 18.0309 32.4412 17.2603 31.9987 16.4897C31.5707 15.7406 31.1212 14.9913 30.6503 14.3492C32.0176 14.5113 33.3753 14.7471 34.7173 15.0556C34.3036 16.328 33.8249 17.5782 33.2831 18.8015ZM24.1644 8.86943C25.0895 9.85847 25.9544 10.902 26.7545 11.9946C25.0277 11.9946 23.2868 11.9946 21.5315 11.9946C22.356 10.9092 23.2348 9.86618 24.1644 8.86943ZM13.9112 3.43246C15.3882 2.55484 18.6847 3.79635 22.1523 6.87872L22.8373 7.49948C21.4689 8.9814 20.2031 10.5547 19.0485 12.2086C17.0544 12.3881 15.0739 12.6956 13.1192 13.1291C13.1192 12.6796 12.9052 12.2086 12.8196 11.7591C11.9848 7.47808 12.5199 4.24587 13.9112 3.43246ZM11.7707 26.743L10.679 26.4004C8.68008 25.8039 6.79783 24.87 5.11362 23.6391C4.67122 23.3387 4.29621 22.9495 4.01244 22.4962C3.72868 22.0429 3.54239 21.5355 3.46541 21.0063C3.46541 19.3795 6.24811 17.3246 10.2723 15.9118L11.7707 15.4195C12.3633 17.3397 13.0783 19.2202 13.9112 21.0491C13.0785 22.9001 12.3636 24.8018 11.7707 26.743ZM22.0881 35.4121C20.6275 36.7404 18.9375 37.7921 17.1006 38.5158C16.607 38.7574 16.0686 38.8936 15.5194 38.9157C14.9704 38.9378 14.4226 38.8454 13.9112 38.6443C12.5199 37.8309 11.9205 34.7058 12.7126 30.5102C12.7126 30.018 12.9266 29.5256 13.055 29.0333C15.0305 29.4577 17.0332 29.7438 19.0485 29.8895C20.217 31.5455 21.4897 33.1256 22.8587 34.6201L22.0239 35.4121H22.0881ZM24.2287 33.2715C23.2836 32.2468 22.3905 31.1751 21.553 30.0608H24.1644C24.1644 30.0608 25.9625 30.0608 26.8401 30.0608C26.0267 31.2595 25.1491 32.2227 24.2287 33.2502V33.2715ZM35.7661 35.9258C35.7296 36.4622 35.5812 36.9849 35.3305 37.4605C35.0798 37.936 34.7324 38.3539 34.3106 38.6871C32.9192 39.5005 29.9225 38.4517 26.6903 35.669L25.5558 34.6629C26.9101 33.1707 28.1548 31.5825 29.2803 29.9109C31.313 29.7471 33.3307 29.4323 35.3166 28.9691C35.3166 29.333 35.4879 29.6969 35.552 30.0393C35.9871 31.9641 36.0598 33.953 35.7661 35.9044V35.9258ZM37.4571 26.4004L36.6865 26.6359C36.0768 24.7066 35.3256 22.825 34.439 21.0063C35.2776 19.2017 35.9927 17.3423 36.5795 15.4408L37.9067 15.8476C42.0379 17.2603 44.9276 19.3795 44.9276 20.9849C44.9276 22.5902 41.7382 24.9448 37.4571 26.4004ZM24.2287 25.0733C25.0259 25.0607 25.8017 24.8126 26.4585 24.3605C27.1153 23.9083 27.6238 23.2722 27.9202 22.5319C28.2165 21.7916 28.2876 20.9802 28.1243 20.1998C27.961 19.4193 27.5708 18.7045 27.0025 18.1451C26.4342 17.5857 25.7133 17.2067 24.9304 17.0558C24.1474 16.9047 23.3373 16.9886 22.6018 17.2965C21.8663 17.6046 21.2381 18.123 20.7964 18.7869C20.3547 19.4507 20.1189 20.2303 20.1188 21.0277C20.1188 21.559 20.2234 22.0851 20.4268 22.5758C20.6301 23.0667 20.9281 23.5127 21.3037 23.8884C21.6794 24.2641 22.1254 24.562 22.6162 24.7653C23.107 24.9686 23.6331 25.0733 24.1644 25.0733H24.2287ZM3.80789 45.8793C4.20584 45.7446 4.54881 45.4833 4.78454 45.1355C5.02027 44.7877 5.13583 44.3724 5.11362 43.9529C5.13255 43.6669 5.09015 43.3801 4.98927 43.1119C4.88839 42.8436 4.73135 42.5999 4.52868 42.3973C4.32601 42.1946 4.08238 42.0375 3.8141 41.9367C3.54582 41.8358 3.25908 41.7934 2.97309 41.8123H0.211792V48.5764H1.26066V46.0506H2.73763L4.10757 48.6406H5.34908L3.80789 45.8793ZM2.75903 45.1515H1.26066V42.7969H2.73763C2.90333 42.7752 3.07176 42.7897 3.23133 42.8393C3.39089 42.889 3.5378 42.9727 3.66191 43.0846C3.78603 43.1965 3.8844 43.334 3.95025 43.4875C4.01611 43.6412 4.04787 43.8072 4.04335 43.9742C4.05111 44.1402 4.02228 44.306 3.95893 44.4597C3.89557 44.6133 3.79922 44.7512 3.67671 44.8635C3.55418 44.9758 3.40849 45.0597 3.24991 45.1096C3.09133 45.1593 2.92376 45.1736 2.75903 45.1515ZM10.0154 46.3502V46.0078C10.0154 44.4024 9.15925 43.4177 7.72508 43.4177C7.38616 43.415 7.05059 43.4848 6.74088 43.6225C6.43118 43.7602 6.15452 43.9625 5.92947 44.216C5.70443 44.4694 5.5362 44.768 5.4361 45.0919C5.336 45.4157 5.30633 45.7572 5.34908 46.0934C5.30567 46.4276 5.33519 46.7673 5.43559 47.089C5.536 47.4107 5.7049 47.7069 5.9307 47.957C6.15649 48.2073 6.43381 48.4056 6.74356 48.5384C7.05333 48.6711 7.38818 48.7352 7.72508 48.7263C8.19454 48.7492 8.6585 48.617 9.04535 48.3501C9.43222 48.0831 9.72044 47.6963 9.86561 47.2493H8.98798C8.86789 47.4609 8.68815 47.6326 8.47123 47.743C8.25431 47.8534 8.00972 47.8975 7.76789 47.87C7.57963 47.8736 7.39271 47.8377 7.21915 47.7647C7.0456 47.6917 6.88926 47.5831 6.76021 47.446C6.63116 47.3089 6.53225 47.1463 6.46986 46.9686C6.40746 46.7909 6.38297 46.6022 6.39794 46.4145L10.0154 46.3502ZM7.72508 44.2097C7.89634 44.2033 8.06703 44.233 8.22605 44.2969C8.38505 44.3608 8.52882 44.4575 8.64796 44.5807C8.76713 44.7039 8.859 44.8508 8.91755 45.0119C8.97611 45.1729 9.00018 45.3445 8.98798 45.5154H6.39794C6.4199 45.1804 6.57003 44.8668 6.81716 44.6396C7.06429 44.4124 7.38944 44.2891 7.72508 44.2953V44.2097ZM12.4985 43.3321C11.3426 43.3321 10.5078 43.91 10.358 44.7876H11.3426C11.3426 44.4237 11.8349 44.2097 12.4129 44.2097C12.9908 44.2097 13.4404 44.5308 13.4404 45.0659V45.4941H12.0704C10.8503 45.4941 10.1653 46.0934 10.1653 47.0138C10.1673 47.2304 10.2142 47.4443 10.3033 47.6419C10.3923 47.8393 10.5215 48.0162 10.6825 48.1611C10.8436 48.306 11.033 48.4158 11.2387 48.4837C11.4445 48.5515 11.662 48.5758 11.8777 48.555C12.1807 48.5681 12.4816 48.4996 12.7491 48.3565C13.0165 48.2134 13.2404 48.001 13.3975 47.7416V48.4694H14.3608V45.1515C14.4892 44.1027 13.7614 43.4177 12.4985 43.4177V43.3321ZM13.4831 46.6713C13.4724 46.8308 13.4298 46.9866 13.358 47.1294C13.2861 47.2723 13.1865 47.3992 13.0648 47.503C12.9431 47.6067 12.802 47.685 12.6495 47.7334C12.4971 47.7817 12.3366 47.7991 12.1774 47.7844C11.6209 47.7844 11.2142 47.5061 11.2142 47.0566C11.2142 46.6071 11.5353 46.3717 12.2416 46.3288H13.4831V46.6713ZM18.5562 45.1087C18.4865 44.845 18.3259 44.6144 18.1026 44.4577C17.8793 44.301 17.6078 44.2283 17.3361 44.2525C16.5013 44.2525 15.9876 44.8947 15.9876 45.9863C15.9876 47.078 16.5013 47.7416 17.3361 47.7416C17.6064 47.7759 17.8799 47.7098 18.1048 47.556C18.3296 47.4021 18.4903 47.1712 18.5562 46.9068H19.5409C19.4715 47.4138 19.2115 47.8753 18.8138 48.1974C18.4161 48.5196 17.9107 48.678 17.4003 48.6406C17.0596 48.6533 16.7202 48.5911 16.4061 48.4585C16.092 48.3258 15.8108 48.126 15.5822 47.873C15.3537 47.6199 15.1833 47.3198 15.0832 46.9939C14.9831 46.668 14.9558 46.3241 15.0029 45.9863C14.9698 45.6608 15.0057 45.3319 15.1081 45.021C15.2104 44.7102 15.377 44.4244 15.5971 44.1821C15.8171 43.9399 16.0857 43.7466 16.3853 43.6149C16.6849 43.4832 17.0088 43.416 17.3361 43.4177C17.846 43.4103 18.3419 43.5852 18.7343 43.9109C19.1267 44.2366 19.39 44.6918 19.4766 45.1944L18.5562 45.1087ZM21.4031 42.1762V43.4605H22.4734V44.3168H21.4031V46.9496C21.4031 47.4633 21.6171 47.6988 22.1309 47.6988H22.4734V48.5336C22.2957 48.556 22.1159 48.556 21.9382 48.5336C20.8252 48.5336 20.3757 48.1483 20.3757 47.1636V44.4024H19.5837V43.5462H20.3328V42.2619L21.4031 42.1762ZM24.9992 48.5978V41.9621H25.941L29.4087 46.7569V41.9621H30.4148V48.7263H29.473L26.0053 43.91V48.7263L24.9992 48.5978ZM33.3687 43.3749C32.2128 43.3749 31.3781 43.9529 31.2281 44.8305H32.2128C32.2128 44.4666 32.7052 44.2525 33.2831 44.2525C33.861 44.2525 34.3106 44.5736 34.3106 45.1087V45.5369H32.9406C31.7205 45.5369 31.0355 46.1362 31.0355 47.0566C31.0375 47.2733 31.0845 47.4871 31.1736 47.6847C31.2626 47.8821 31.3917 48.059 31.5527 48.2039C31.7137 48.3488 31.9032 48.4587 32.1089 48.5265C32.3147 48.5943 32.5323 48.6186 32.748 48.5978C33.0509 48.611 33.3519 48.5424 33.6192 48.3993C33.8867 48.2562 34.1106 48.0438 34.2677 47.7844V48.5122H35.3166V45.1515C35.3166 44.1027 34.6531 43.4177 33.3687 43.4177V43.3749ZM34.3534 46.7141C34.3426 46.8736 34.3001 47.0294 34.2282 47.1722C34.1564 47.3151 34.0567 47.442 33.935 47.5458C33.8133 47.6495 33.6721 47.7278 33.5198 47.7762C33.3674 47.8245 33.2069 47.8419 33.0476 47.8272C32.4911 47.8272 32.0844 47.549 32.0844 47.0994C32.0844 46.6499 32.4055 46.4145 33.1119 46.3717H34.3534V46.7141ZM37.4571 42.2619V43.5462H38.5703V44.4024H37.4571V47.0352C37.4571 47.549 37.6926 47.7844 38.1849 47.7844H38.5703V48.6192C38.3855 48.6435 38.1984 48.6435 38.0137 48.6192C36.9006 48.6192 36.4511 48.2339 36.4511 47.2493V44.4024H35.6377V43.5462H36.4511V42.2619H37.4571ZM38.9127 42.0263C38.8998 41.8923 38.9279 41.7574 38.9934 41.6396C39.059 41.5219 39.1588 41.4269 39.2797 41.3673C39.4005 41.3077 39.5366 41.2863 39.67 41.3059C39.8033 41.3256 39.9275 41.3853 40.0259 41.4773C40.1245 41.5692 40.1926 41.689 40.2215 41.8207C40.2503 41.9523 40.2382 42.0896 40.1871 42.2142C40.1359 42.3389 40.0481 42.4451 39.9352 42.5186C39.8222 42.592 39.6896 42.6294 39.5548 42.6257C39.4661 42.6321 39.377 42.6193 39.2936 42.5882C39.2102 42.5571 39.1345 42.5084 39.0715 42.4455C39.0086 42.3825 38.9599 42.3069 38.9288 42.2234C38.8977 42.14 38.8849 42.0509 38.8913 41.9621L38.9127 42.0263ZM39.0626 43.5247H40.0686V48.6406H39.0626V43.5247ZM43.3437 48.6406H42.2734L40.4325 43.5247H41.5028L42.7657 47.549L44.0286 43.5247H45.0989L43.3437 48.6406ZM49.7653 46.3502V46.0078C49.8119 45.6822 49.7871 45.3504 49.6928 45.0354C49.5985 44.7203 49.4367 44.4296 49.2189 44.1832C49.001 43.9369 48.7322 43.7408 48.4311 43.6086C48.1299 43.4764 47.8037 43.4113 47.4748 43.4177C47.1377 43.418 46.8046 43.4902 46.4975 43.6291C46.1903 43.7682 45.9163 43.971 45.6936 44.2241C45.4709 44.4771 45.3046 44.7747 45.2058 45.097C45.1069 45.4193 45.0777 45.759 45.1203 46.0934C45.0734 46.4264 45.0998 46.7657 45.1976 47.0874C45.2953 47.4092 45.4621 47.7058 45.6864 47.9564C45.9105 48.2071 46.1867 48.4059 46.4956 48.5388C46.8045 48.6718 47.1387 48.7358 47.4748 48.7263C47.9443 48.7492 48.4083 48.617 48.7952 48.3501C49.182 48.0831 49.4703 47.6963 49.6154 47.2493H48.6308C48.5187 47.4632 48.3437 47.6374 48.1292 47.7485C47.9148 47.8596 47.6714 47.9019 47.432 47.87C47.2438 47.8736 47.0569 47.8377 46.8833 47.7647C46.7098 47.6917 46.5534 47.5831 46.4244 47.446C46.2953 47.3089 46.1965 47.1463 46.134 46.9686C46.0716 46.7909 46.0471 46.6022 46.0621 46.4145L49.7653 46.3502ZM47.4748 44.2097C47.6453 44.2065 47.8144 44.2385 47.972 44.3035C48.1294 44.3686 48.2719 44.4654 48.3903 44.5879C48.5088 44.7103 48.6008 44.8559 48.6606 45.0155C48.7204 45.1751 48.7466 45.3452 48.7378 45.5154H46.0193C46.0411 45.1841 46.1882 44.8736 46.4308 44.647C46.6733 44.4203 46.9931 44.2947 47.325 44.2953L47.4748 44.2097Z" fill="#E5E7EB"/>
</svg>
