<svg width="50" height="50" viewBox="0 0 50 50" fill="none" xmlns="http://www.w3.org/2000/svg">
<path d="M47.8125 25C47.8125 22.0833 44.6875 19.375 39.4791 17.5L38.5416 17.1875V16.7708C39.6875 11.0417 38.8541 6.77083 36.25 5.20833C33.6458 3.64583 29.7916 5.10416 25.625 8.74999L24.9999 9.37499L24.7916 9.16668H24.5833C20.3125 5.20833 16.1458 3.85416 13.5416 5.31249C10.9375 6.77083 10.2083 10.8333 11.25 16.1458C11.3595 16.4838 11.4294 16.8334 11.4583 17.1875L10.3125 17.6042C5.20827 19.375 2.18744 22.0833 2.18744 25C2.18744 27.9167 5.52078 30.8333 10.7291 32.7083L11.4583 32.9167C11.3295 33.2854 11.2593 33.672 11.25 34.0625C10.2083 39.2708 11.1458 43.2292 13.5416 44.6875C15.9375 46.1458 20.3125 44.7917 24.4791 41.1458L25.1041 40.625L25.9374 41.4583C28.8541 43.9583 31.7708 45.3125 34.0625 45.3125C34.8708 45.331 35.667 45.1137 36.3541 44.6875C38.9583 43.2292 39.8958 38.9583 38.75 33.5417V33.3333C38.705 33.162 38.6702 32.988 38.6458 32.8125H38.9583C44.4791 30.8333 47.8125 28.0208 47.8125 25ZM44.7916 25C44.7916 26.25 42.5 28.4375 38.0208 29.8958H37.8125C37.2663 28.2203 36.6051 26.5844 35.8333 25C36.5625 23.3333 37.1875 21.6667 37.7083 20.1042L38.5416 20.3125C42.7083 21.7708 44.7916 23.75 44.7916 25ZM27.9166 39.1667L27.0833 38.5417C28.276 37.2201 29.3891 35.8287 30.4166 34.375L35.7291 33.5417C35.8333 33.75 35.8333 33.9583 35.9375 34.0625C36.3086 35.9493 36.3789 37.8829 36.1458 39.7917C35.9994 40.7045 35.5608 41.5453 34.8958 42.1875C33.8541 42.8125 31.0416 41.9792 27.9166 39.1667ZM26.5624 34.5833L25.1041 36.4583L23.4374 34.5833H26.5624ZM12.2916 20C12.8152 21.7174 13.477 23.3895 14.2708 25C13.4764 26.6461 12.8146 28.3528 12.2916 30.1042L11.6666 29.8958C9.84248 29.3201 8.14534 28.4008 6.66661 27.1875C6.28371 26.9455 5.95598 26.6258 5.70474 26.2489C5.45349 25.872 5.28434 25.4465 5.20827 25C5.20827 23.75 7.29161 21.7708 11.25 20.4167L12.2916 20ZM23.4374 15.4167L24.9999 13.6458L26.5624 15.4167H23.4374ZM34.8958 7.81249C36.0416 8.43749 36.6666 11.5625 35.7291 16.1458C35.7339 16.2023 35.7271 16.2591 35.7092 16.3128C35.6913 16.3665 35.6627 16.4161 35.625 16.4583L30.4166 15.625C29.3891 14.1712 28.276 12.7799 27.0833 11.4583L27.7083 10.9375C31.0416 8.02083 33.7499 7.18749 34.8958 7.81249ZM17.4999 18.8542L16.6666 20.2083L15.9375 21.5625C15.625 20.8333 15.4166 20.1042 15.1041 19.2708L17.4999 18.8542ZM15.1041 30.7292C15.4166 30 15.625 29.2708 15.9375 28.4375L16.6666 29.7917L17.4999 31.1458L15.1041 30.7292ZM32.5 25C31.9699 26.142 31.3787 27.2548 30.7291 28.3333C30.1041 29.4792 29.375 30.5208 28.75 31.5625H21.2499C20.5208 30.4167 19.7916 29.375 19.2708 28.3333C18.616 27.2577 18.0247 26.1447 17.4999 25C18.0053 23.8459 18.5973 22.7316 19.2708 21.6667C19.8693 20.5875 20.5301 19.544 21.2499 18.5417C23.7456 18.3335 26.2543 18.3335 28.75 18.5417C29.4791 19.5833 30.1041 20.625 30.7291 21.6667C31.4026 22.7316 31.9945 23.8459 32.5 25ZM33.3333 20.2083L32.5 18.8542L34.8958 19.375C34.6638 20.1208 34.3855 20.8514 34.0625 21.5625L33.3333 20.2083ZM32.5 31.1458L33.3333 29.7917L34.0625 28.3333L34.9999 30.7292L32.5 31.1458ZM22.8124 11.3542H22.9166L19.5833 15.5208L14.375 16.3542C14.2708 16.0417 14.2708 15.8333 14.1666 15.5208C13.3333 11.25 13.9583 8.33333 14.9999 7.81249C15.2765 7.63085 15.61 7.55674 15.9375 7.60416C17.3958 7.60416 19.8958 8.64582 22.7083 11.1458L22.8124 11.3542ZM14.1666 34.5833C14.1856 34.2617 14.256 33.9453 14.375 33.6458L19.6874 34.375C20.6889 35.8481 21.8034 37.2412 23.0208 38.5417L22.8124 38.75L22.6041 38.9583C21.1839 40.2738 19.521 41.2999 17.7083 41.9792C17.3106 42.1875 16.875 42.3133 16.4275 42.3491C15.98 42.3849 15.5298 42.3299 15.1041 42.1875C13.9583 41.5625 13.3333 38.75 14.1666 34.5833Z" fill="#E5E7EB"/>
<path d="M25 20.4166C24.0894 20.3959 23.1932 20.6471 22.4259 21.138C21.6586 21.6288 21.0549 22.3372 20.6921 23.1726C20.3291 24.0081 20.2233 24.9328 20.3882 25.8286C20.5531 26.7244 20.9813 27.5508 21.6179 28.2022C22.2546 28.8537 23.0709 29.3006 23.9627 29.4861C24.8545 29.6716 25.7814 29.5871 26.6249 29.2435C27.4685 28.8998 28.1906 28.3126 28.6989 27.5568C29.2073 26.801 29.4789 25.9108 29.4792 25C29.4795 23.8022 29.0109 22.652 28.1738 21.7954C27.3366 20.9388 26.1974 20.4439 25 20.4166Z" fill="#E5E7EB"/>
</svg>
