<svg width="50" height="50" viewBox="0 0 50 50" fill="none" xmlns="http://www.w3.org/2000/svg">
<g clip-path="url(#clip0_96_143)">
<path d="M49.0821 30.6725C49.0536 30.5852 49.0142 30.5019 48.9648 30.4244C48.6752 29.876 47.9715 29.7123 46.8661 29.9408C43.4217 30.6515 42.088 30.2142 41.6044 29.901C44.4003 25.634 46.6982 20.4802 47.94 15.6725C48.5055 13.4835 49.603 8.33146 48.1946 5.815C48.1046 5.64276 47.9994 5.47891 47.8802 5.32542C45.194 1.89292 41.2515 0.0516696 36.479 0.00104459C33.365 -0.0318721 30.7071 0.722086 29.9871 0.999795C29.6305 0.933235 29.2721 0.876547 28.9123 0.829795C28.0105 0.666482 27.0967 0.577434 26.1802 0.563545C23.7173 0.525211 21.589 1.11396 19.8265 2.31479C18.0405 1.64584 9.84983 -1.11229 4.78087 2.47896C1.94983 4.48459 0.642954 8.06938 0.896287 13.134C0.981496 14.8381 1.95233 20.0798 3.48441 25.0998C4.44233 28.2383 5.44004 30.7288 6.47066 32.5623C7.62275 34.6335 8.81629 35.8817 10.0421 36.2904C10.9742 36.601 12.4019 36.5906 13.9132 34.774C15.5823 32.7667 17.2263 30.9702 17.9644 30.1763C18.8709 30.6669 19.8527 30.9315 20.8602 30.9621C20.8604 30.9649 20.8607 30.9678 20.8611 30.9706C20.6857 31.1796 20.514 31.3918 20.3461 31.6069C19.64 32.5031 19.4932 32.6896 17.2207 33.1575C16.5744 33.2908 14.8573 33.6448 14.8323 34.8481C14.8271 35.1031 14.9009 35.3292 15.0238 35.529C15.4965 36.4104 16.9438 36.7992 17.1384 36.8479C19.9186 37.5427 22.3559 37.0396 24.1621 35.434C24.1267 40.0819 24.3236 44.6369 24.8817 46.0327C25.3425 47.1846 26.4688 50.0004 30.0259 50C30.5477 50 31.1223 49.9394 31.7542 49.804C35.4665 49.0079 37.0786 47.3673 37.7021 43.75C38.0152 41.936 38.5388 37.7598 38.8246 35.2058C38.8598 35.0594 38.899 34.9544 38.9434 34.9221C38.9448 34.921 39.0886 34.824 39.8334 34.986C39.8638 34.9926 39.8946 34.9974 39.9257 35.0002L40.4546 35.0467L40.4857 35.0488C42.2498 35.1288 44.4677 34.7517 45.759 34.1513C47.1002 33.5288 49.5209 32.0006 49.0821 30.6725ZM4.93962 24.7427C3.39066 19.6681 2.48566 14.5654 2.414 13.1346C2.18775 8.61084 3.28295 5.46188 5.66879 3.77479C9.49525 1.06938 15.7517 2.64813 18.3938 3.50396C18.3871 3.51063 18.38 3.51667 18.3734 3.52354C14.1571 7.78188 14.2571 15.0569 14.2675 15.5017C14.2671 15.6731 14.2813 15.916 14.3013 16.2502C14.3738 17.4738 14.5088 19.751 14.1482 22.3302C13.813 24.7269 14.5517 27.0727 16.1748 28.766C16.3427 28.9413 16.5182 29.1058 16.6994 29.2606C15.9769 30.0344 14.4069 31.7452 12.7359 33.7556C11.5532 35.1775 10.7365 34.905 10.468 34.8154C9.6515 34.5431 8.7742 33.5923 7.88858 32.0606C6.88941 30.3127 5.88129 27.8279 4.93962 24.7427ZM17.4546 35.3408C17.0982 35.2517 16.7732 35.105 16.5542 34.9717C16.7394 34.8896 17.0488 34.7838 17.5611 34.6781C20.2346 34.1279 20.6475 33.7394 21.5492 32.5944C21.7559 32.3319 21.99 32.0346 22.3144 31.6723C22.3842 31.5941 22.4365 31.5019 22.468 31.4019C22.8238 31.0867 23.0355 31.1729 23.3782 31.315C23.7032 31.4496 24.0194 31.8567 24.148 32.305C24.2086 32.5167 24.2769 32.9185 24.0538 33.2308C22.1698 35.8679 19.4255 35.8338 17.4546 35.3408ZM21.8171 27.0325L21.7077 27.3263C21.4307 28.0692 21.173 28.7598 21.0132 29.4158C19.6227 29.4115 18.2698 28.8175 17.2413 27.7442C15.9332 26.3794 15.339 24.4808 15.6111 22.535C15.9919 19.8102 15.8513 17.4375 15.7757 16.1629C15.7652 15.9844 15.7559 15.8281 15.7502 15.7048C16.3663 15.1588 19.2209 13.6294 21.2563 14.0956C22.1852 14.3085 22.7513 14.9408 22.9865 16.029C24.2044 21.6619 23.1477 24.0096 22.2986 25.8963C22.1236 26.285 21.9584 26.6523 21.8171 27.0325ZM37.1582 36.5585C37.123 36.9269 37.0836 37.3419 37.0294 37.8L36.7252 38.7131C36.7011 38.7855 36.6883 38.8612 36.6873 38.9375C36.675 39.9265 36.5748 40.2894 36.4477 40.7485C36.3157 41.226 36.1659 41.7675 36.074 42.9517C35.8448 45.8981 34.2444 47.5906 31.0382 48.2777C27.8809 48.955 27.3209 47.2427 26.8273 45.7325C26.7768 45.5742 26.7234 45.4168 26.6671 45.2604C26.2184 44.04 26.269 42.319 26.3392 39.9373C26.3736 38.7681 26.2873 35.9763 25.6513 34.4244C25.6605 33.8135 25.6734 33.1933 25.6909 32.5665C25.693 32.4871 25.6822 32.4078 25.659 32.3319C25.6388 32.1854 25.6083 32.0406 25.5675 31.8985C25.3121 31.0063 24.6898 30.2598 23.9432 29.9504C23.6465 29.8275 23.1019 29.6021 22.4477 29.7694C22.5873 29.1944 22.8292 28.5454 23.0915 27.8425L23.2017 27.5467C23.3257 27.2133 23.4809 26.8681 23.6455 26.5025C24.534 24.5283 25.7509 21.8248 24.43 15.7167C23.9355 13.429 22.2834 12.3119 19.7792 12.5713C18.2777 12.7267 16.9044 13.3325 16.2192 13.6798C16.0818 13.7494 15.9458 13.8217 15.8113 13.8967C16.0025 11.5917 16.725 7.28396 19.4273 4.55854C19.6281 4.35628 19.839 4.16437 20.0592 3.98354C20.1686 3.96222 20.2716 3.91634 20.3607 3.84938C21.9282 2.66063 23.8909 2.07729 26.1982 2.115C27.0505 2.12896 27.8684 2.18563 28.6444 2.28375C32.684 3.02209 35.4025 5.29792 37.0525 7.24771C38.749 9.2525 39.6675 11.2717 40.0342 12.3608C37.2775 12.0804 35.4021 12.625 34.4515 13.9838C32.3836 16.9398 35.5827 22.6773 37.1205 25.4346C37.4023 25.94 37.6459 26.3767 37.7223 26.5623C38.223 27.7758 38.8713 28.5858 39.3446 29.1773C39.4896 29.3585 39.6305 29.5344 39.7373 29.6877C38.9023 29.9283 37.4023 30.4846 37.539 33.2648C37.5134 33.5904 37.4509 34.1958 37.3653 34.9623C37.2692 35.395 37.219 35.9213 37.1582 36.5585ZM39.0134 33.1813C38.929 31.4488 39.574 31.2677 40.2565 31.076C40.3509 31.0502 40.4447 31.022 40.5377 30.9915C40.6258 31.0695 40.7192 31.1412 40.8173 31.206C42.0055 31.9904 44.1138 32.0838 47.0815 31.486C46.6615 31.8546 46.0005 32.3181 45.0955 32.7383C44.2417 33.1348 42.8127 33.4321 41.4552 33.4958C39.9559 33.5658 39.193 33.3277 39.0134 33.1813ZM40.1998 13.8663C40.1875 14.5971 40.0869 15.2604 39.9802 15.9531C39.8657 16.6981 39.7469 17.4685 39.7169 18.4035C39.6873 19.3135 39.8011 20.2596 39.9111 21.1746C40.1332 23.0225 40.3611 24.9252 39.4788 26.8025C39.3323 26.5429 39.2018 26.2746 39.088 25.9992C38.9782 25.7333 38.7402 25.3063 38.4107 24.7154C37.1282 22.4152 34.1244 17.0288 35.6621 14.8308C36.4527 13.7002 38.4555 13.6515 40.1998 13.8663ZM40.6757 28.4781C40.6168 28.4032 40.5576 28.3286 40.498 28.2544L40.424 28.1619C41.9369 25.6629 41.6411 23.1906 41.3777 20.9983C41.2696 20.0988 41.1675 19.2492 41.1934 18.4513C41.2202 17.6052 41.3321 16.8798 41.4402 16.1781C41.5734 15.3135 41.7086 14.4192 41.6713 13.3646C41.6992 13.254 41.7105 13.1233 41.6959 12.9683C41.6007 11.9569 40.4461 8.93084 38.093 6.19125C36.8271 4.71771 34.9896 3.07209 32.4911 1.94229C33.585 1.72021 35.0594 1.51834 36.7086 1.555C40.9825 1.65 44.364 3.24979 46.759 6.31C46.8099 6.37644 46.8563 6.44617 46.898 6.51875C48.4044 9.34292 46.3225 19.5919 40.6757 28.4781ZM22.3077 15.736C22.2557 16.1098 21.6642 16.6163 21.0138 16.6163C20.9574 16.6163 20.9011 16.6124 20.8452 16.6046C20.455 16.5504 20.0609 16.3046 19.7913 15.9471C19.6959 15.821 19.5407 15.5763 19.5715 15.3546C19.583 15.271 19.6259 15.1494 19.7642 15.0446C20.0105 14.8583 20.4971 14.7892 21.0342 14.864C21.6932 14.9558 22.373 15.2677 22.3077 15.736ZM38.8296 14.879C38.8528 15.044 38.7275 15.2977 38.5107 15.5252C38.3684 15.6746 38.069 15.9338 37.6609 15.9902C37.6091 15.9974 37.5569 16.001 37.5046 16.001C36.8932 16.001 36.3767 15.5127 36.3365 15.2267C36.2865 14.859 36.8867 14.5796 37.5055 14.4933C38.1242 14.4071 38.7786 14.5117 38.8296 14.879Z" fill="#E5E7EB"/>
</g>
<defs>
<clipPath id="clip0_96_143">
<rect width="50" height="50" fill="white"/>
</clipPath>
</defs>
</svg>
