<svg width="50" height="50" viewBox="0 0 50 50" fill="none" xmlns="http://www.w3.org/2000/svg">
<path d="M25 10C18.3333 10 14.1667 13.3333 12.5 20C15 16.6667 17.9167 15.4167 21.25 16.25C23.1521 16.725 24.5104 18.1042 26.0167 19.6333C28.4687 22.1208 31.3042 25 37.5 25C44.1667 25 48.3333 21.6667 50 15C47.5 18.3333 44.5833 19.5833 41.25 18.75C39.3479 18.275 37.9896 16.8958 36.4833 15.3667C34.0333 12.8792 31.1979 10 25 10ZM12.5 25C5.83333 25 1.66667 28.3333 0 35C2.5 31.6667 5.41667 30.4167 8.75 31.25C10.6521 31.725 12.0104 33.1042 13.5167 34.6333C15.9687 37.1208 18.8042 40 25 40C31.6667 40 35.8333 36.6667 37.5 30C35 33.3333 32.0833 34.5833 28.75 33.75C26.8479 33.275 25.4896 31.8958 23.9833 30.3667C21.5333 27.8792 18.6979 25 12.5 25Z" fill="#E5E7EB"/>
</svg>
