<svg width="50" height="50" viewBox="0 0 50 50" fill="none" xmlns="http://www.w3.org/2000/svg">
<g clip-path="url(#clip0_96_133)">
<path d="M0 25V50H50V0H0V25ZM30.664 24.1211V26.3672H24.2187V46.875H18.9453V26.3672H12.5V21.875H30.664V24.1211ZM43.3594 22.1484C44.1602 22.3046 45.0586 22.5196 45.3711 22.6368L45.8984 22.8518V25.2931C45.8984 26.6408 45.8593 27.7346 45.8203 27.7346C45.7812 27.7346 45.3711 27.5196 44.9023 27.2656C43.1446 26.2696 40.3321 25.8984 38.6133 26.4063C38.2031 26.5235 37.5977 26.8946 37.2852 27.2071C36.8164 27.6564 36.7187 27.9297 36.7187 28.6523C36.7187 29.4336 36.8164 29.6485 37.461 30.2539C37.8711 30.6445 39.3946 31.5429 40.8789 32.2852C44.0039 33.8281 45.5859 35.1368 46.3086 36.7578C46.9531 38.2031 46.9727 41.25 46.3478 42.6171C45.7618 43.9063 44.4728 45.2148 43.2032 45.8204C40.5079 47.0898 36.1134 47.2071 32.6759 46.0742L31.4454 45.6642V40.2346L32.422 40.9377C33.6914 41.8556 35.3321 42.4221 37.0508 42.5392C38.7696 42.6564 40.039 42.3437 40.8203 41.6017C41.3086 41.1523 41.4062 40.8986 41.4062 40.1564C41.4062 38.7306 40.5859 37.9885 37.2265 36.3479C34.2578 34.8829 33.3203 34.2189 32.4414 32.9298C30.4883 30.0978 31.0742 25.7619 33.6914 23.7893C35.9179 22.09 39.6094 21.4649 43.3594 22.1484Z" fill="#E5E7EB"/>
</g>
<defs>
<clipPath id="clip0_96_133">
<rect width="50" height="50" fill="white"/>
</clipPath>
</defs>
</svg>
